ModelForces
version=1
nRows=4
nColumns=155
inDegrees=no

This file contains the forces exerted on a model during a simulation.

A force is a generalized force, meaning that it can be either a force (N) or a torque (Nm).

Units are S.I. units (second, meters, Newtons, ...)
Angles are in degrees.

endheader
time	glut_med1_r	glut_med2_r	glut_med3_r	glut_min1_r	glut_min2_r	glut_min3_r	semimem_r	semiten_r	bifemlh_r	bifemsh_r	sar_r	add_long_r	add_brev_r	add_mag1_r	add_mag2_r	add_mag3_r	tfl_r	pect_r	grac_r	glut_max1_r	glut_max2_r	glut_max3_r	iliacus_r	psoas_r	quad_fem_r	gem_r	peri_r	rect_fem_r	vas_med_r	vas_int_r	vas_lat_r	med_gas_r	lat_gas_r	soleus_r	tib_post_r	flex_dig_r	flex_hal_r	tib_ant_r	per_brev_r	per_long_r	per_tert_r	ext_dig_r	ext_hal_r	glut_med1_l	glut_med2_l	glut_med3_l	glut_min1_l	glut_min2_l	glut_min3_l	semimem_l	semiten_l	bifemlh_l	bifemsh_l	sar_l	add_long_l	add_brev_l	add_mag1_l	add_mag2_l	add_mag3_l	tfl_l	pect_l	grac_l	glut_max1_l	glut_max2_l	glut_max3_l	iliacus_l	psoas_l	quad_fem_l	gem_l	peri_l	rect_fem_l	vas_med_l	vas_int_l	vas_lat_l	med_gas_l	lat_gas_l	soleus_l	tib_post_l	flex_dig_l	flex_hal_l	tib_ant_l	per_brev_l	per_long_l	per_tert_l	ext_dig_l	ext_hal_l	ercspn_r	ercspn_l	intobl_r	intobl_l	extobl_r	extobl_l	femur_lat_meniscii_r.femur_lat_r.force.X	femur_lat_meniscii_r.femur_lat_r.force.Y	femur_lat_meniscii_r.femur_lat_r.force.Z	femur_lat_meniscii_r.femur_lat_r.torque.X	femur_lat_meniscii_r.femur_lat_r.torque.Y	femur_lat_meniscii_r.femur_lat_r.torque.Z	femur_lat_meniscii_r.meniscus_lat_r.force.X	femur_lat_meniscii_r.meniscus_lat_r.force.Y	femur_lat_meniscii_r.meniscus_lat_r.force.Z	femur_lat_meniscii_r.meniscus_lat_r.torque.X	femur_lat_meniscii_r.meniscus_lat_r.torque.Y	femur_lat_meniscii_r.meniscus_lat_r.torque.Z	femur_med_meniscii_r.femur_med_r.force.X	femur_med_meniscii_r.femur_med_r.force.Y	femur_med_meniscii_r.femur_med_r.force.Z	femur_med_meniscii_r.femur_med_r.torque.X	femur_med_meniscii_r.femur_med_r.torque.Y	femur_med_meniscii_r.femur_med_r.torque.Z	femur_med_meniscii_r.meniscus_med_r.force.X	femur_med_meniscii_r.meniscus_med_r.force.Y	femur_med_meniscii_r.meniscus_med_r.force.Z	femur_med_meniscii_r.meniscus_med_r.torque.X	femur_med_meniscii_r.meniscus_med_r.torque.Y	femur_med_meniscii_r.meniscus_med_r.torque.Z	femur_med_tibia_r.tibia_upper_r.force.X	femur_med_tibia_r.tibia_upper_r.force.Y	femur_med_tibia_r.tibia_upper_r.force.Z	femur_med_tibia_r.tibia_upper_r.torque.X	femur_med_tibia_r.tibia_upper_r.torque.Y	femur_med_tibia_r.tibia_upper_r.torque.Z	femur_med_tibia_r.femur_med_r.force.X	femur_med_tibia_r.femur_med_r.force.Y	femur_med_tibia_r.femur_med_r.force.Z	femur_med_tibia_r.femur_med_r.torque.X	femur_med_tibia_r.femur_med_r.torque.Y	femur_med_tibia_r.femur_med_r.torque.Z	femur_lat_tibia_r.tibia_upper_r.force.X	femur_lat_tibia_r.tibia_upper_r.force.Y	femur_lat_tibia_r.tibia_upper_r.force.Z	femur_lat_tibia_r.tibia_upper_r.torque.X	femur_lat_tibia_r.tibia_upper_r.torque.Y	femur_lat_tibia_r.tibia_upper_r.torque.Z	femur_lat_tibia_r.femur_lat_r.force.X	femur_lat_tibia_r.femur_lat_r.force.Y	femur_lat_tibia_r.femur_lat_r.force.Z	femur_lat_tibia_r.femur_lat_r.torque.X	femur_lat_tibia_r.femur_lat_r.torque.Y	femur_lat_tibia_r.femur_lat_r.torque.Z	aACL_R	pACL_R	aPCL_R	pPCL_R	aMCL_R	mMCL_R	pMCL_R	aLCL_R	mLCL_R	pLCL_R	aPCL_L	pPCL_L	aMCL_L	aLCL_L
      0.15582941	     11.86314444	      8.67233084	      9.33177118	      3.99787239	      4.63722941	      5.04965301	      8.58573587	    161.43484132	    134.74971328	    290.79203667	    128.47463255	      8.63496296	      6.20289385	      0.00000000	      3.78425809	      6.39703498	      5.02488752	      3.37542156	     98.62947262	      5.60050398	      8.52051892	      6.40682131	     28.14976888	     19.21648316	      5.50189738	      3.75544207	      6.31688273	     47.51201912	     31.21663706	     33.46595326	     45.41115661	      0.00000000	      0.00000000	      0.00000000	      0.00000000	      0.00000000	      0.00000000	     35.55920339	      0.67140195	      0.44347860	     22.13247728	     34.04547456	      9.28989545	     11.86314444	      8.67233084	      9.33177118	      3.99787239	      4.63722941	      5.04965301	      0.00000000	      6.44198967	     12.69330687	     10.95130339	      2.28070136	      8.63496296	      6.20289385	      0.00000000	      3.78425809	      6.39703498	      5.58671004	      3.37542156	      2.35592928	      5.60050398	      8.52051892	      6.40682131	     28.14976888	     19.21648316	      5.50189738	      3.75544207	      6.31688273	     17.76432517	      0.00000000	      0.00000000	      0.00000000	     21.32939954	     10.10920286	     52.49760163	     51.91687913	      5.63603448	      5.03968314	     13.78409722	      7.39204375	     18.75318421	      2.97073734	      9.28007566	      2.91378874	     37.63383079	     37.63383079	     14.02454582	     14.02454582	     31.33755158	     31.33755158	     21.07653050	     64.51938508	     16.08375973	     -8.13310312	      0.56349195	      8.05981378	    -21.07653050	    -64.51938508	    -16.08375973	      2.05830780	     -0.90679508	      1.27788573	      1.15350295	      2.59936212	      1.41443395	     -0.51698802	     -0.02894416	      0.47291719	     -1.15350295	     -2.59936212	     -1.41443395	     -0.02278855	      0.00001672	      0.02044395	   -581.06189332	   -667.79132497	    241.49835553	    -15.73080504	     13.33447856	     -0.95156461	    581.06189332	    667.79132497	   -241.49835553	    109.89747315	     -9.79945945	    237.29817420	   -109.08576879	   -166.88248120	    -59.11445689	      5.77277178	     -4.11345725	      0.96652946	    109.08576879	    166.88248120	     59.11445689	    -28.22693202	      2.79461308	     44.19198944	    -12.31383091	      0.00000000	    447.29020021	    327.63994821	      0.00000000	      0.00000000	      0.00000000	      0.00000000	      0.00000000	      0.00000000	      0.00000000	      0.00000000	      0.00000001	      0.00000000
      0.15609399	     11.84977013	      8.66183064	      9.32033920	      3.99322818	      4.63214226	      5.04317188	      7.43512504	    161.64992260	    134.58422294	    290.48814630	    128.58306903	      8.62438907	      6.19575506	      0.00000000	      3.77959786	      6.38859173	      5.02217337	      3.37147225	     98.73265522	      5.59369302	      8.51013454	      6.39889545	     28.13038375	     19.19437172	      5.49536778	      3.75224142	      6.31515842	     47.69561479	     31.22048329	     33.46352178	     45.39489089	      0.00000000	      0.00000000	      0.00000000	      0.00000000	      0.00000000	      0.00000000	     35.63229429	      0.67315120	      0.44681639	     21.94161269	     34.20113482	      9.33458505	     11.84977013	      8.66183064	      9.32033920	      3.99322818	      4.63214226	      5.04317188	      0.00000000	      6.43371159	     12.67822441	     10.93829069	      2.27806428	      8.62438907	      6.19575506	      0.00000000	      3.77959786	      6.38859173	      5.58151892	      3.37147225	      2.35315753	      5.59369302	      8.51013454	      6.39889545	     28.13038375	     19.19437172	      5.49536778	      3.75224142	      6.31515842	     17.74012132	      0.00000000	      0.00000000	      0.00000000	     21.32609948	     10.10663052	     52.44589513	     51.88704980	      5.63054210	      5.03498375	     13.76674358	      7.38212618	     18.73535098	      2.96733220	      9.26428175	      2.90873278	     37.59001522	     37.59001522	     14.00692873	     14.00692873	     31.32155161	     31.32155161	     21.50539751	     64.03754627	     15.63718778	     -7.93181356	      0.57362090	      8.23847485	    -21.50539751	    -64.03754627	    -15.63718778	      2.02700397	     -0.90987716	      1.25928818	      1.19391360	      2.60200394	      1.44747729	     -0.53041243	     -0.02988007	      0.48927560	     -1.19391360	     -2.60200394	     -1.44747729	     -0.02214838	      0.00018532	      0.01986931	   -586.50510063	   -668.54142826	    242.22637120	    -15.75536787	     13.45230626	     -0.99375184	    586.50510063	    668.54142826	   -242.22637120	    110.20612611	     -9.89554835	    239.50490647	   -108.33473801	   -165.24600521	    -58.55227490	      5.70975478	     -4.08452749	      0.97042185	    108.33473801	    165.24600521	     58.55227490	    -27.95376714	      2.77548556	     43.88032399	    -12.31428459	      0.00000000	    450.53081535	    328.85816717	      0.00000000	      0.00000000	      0.00000000	      0.00000000	      0.00000000	      0.00000000	      0.00000000	      0.00000000	      0.00000001	      0.00000000
      0.15646620	     11.83096793	      8.64712186	      9.30432533	      3.98672225	      4.62501611	      5.03409184	      5.89583918	    161.96144798	    134.34494213	    290.07492777	    128.74125594	      8.60957723	      6.18575442	      0.00000000	      3.77306952	      6.37676402	      5.01835331	      3.36593983	     98.88251320	      5.58415238	      8.49558831	      6.38779314	     28.10323070	     19.16340004	      5.48622088	      3.74775837	      6.31266842	     47.95598098	     31.22338648	     33.45791474	     45.36992975	      0.00000000	      0.00000000	      0.00000000	      0.00000000	      0.00000000	      0.00000000	     35.73399568	      0.67660700	      0.45300467	     21.93763708	     34.42022145	      9.39728962	     11.83096793	      8.64712186	      9.30432533	      3.98672225	      4.62501611	      5.03409184	      0.00000000	      6.42211581	     12.65704090	     10.92006213	      2.27437006	      8.60957723	      6.18575442	      0.00000000	      3.77306952	      6.37676402	      5.57424627	      3.36593983	      2.34927473	      5.58415238	      8.49558831	      6.38779314	     28.10323070	     19.16340004	      5.48622088	      3.74775837	      6.31266842	     17.70620500	      0.00000000	      0.00000000	      0.00000000	     21.32128254	     10.10293265	     52.37307941	     51.84519921	      5.62280712	      5.02835418	     13.74239879	      7.36821968	     18.71030494	      2.96256254	      9.24228575	      2.90170611	     37.52863546	     37.52863546	     13.98225100	     13.98225100	     31.29914064	     31.29914064	     21.98154286	     63.36624536	     15.25991958	     -7.75305809	      0.58628358	      8.43747721	    -21.98154286	    -63.36624536	    -15.25991958	      1.99083196	     -0.91710553	      1.23659514	      1.25821732	      2.60279757	      1.47769654	     -0.54254850	     -0.03144975	      0.51541063	     -1.25821732	     -2.60279757	     -1.47769654	     -0.02174389	      0.00096803	      0.01875871	   -594.71789115	   -670.44311477	    243.08250860	    -15.79286735	     13.61871628	     -1.04450961	    594.71789115	    670.44311477	   -243.08250860	    110.58035798	    -10.03535217	    242.83178861	   -107.40779035	   -162.95506104	    -57.90650003	      5.62657845	     -4.05115443	      0.97012319	    107.40779035	    162.95506104	     57.90650003	    -27.63070337	      2.75296392	     43.49744348	    -12.32237953	      0.00000000	    455.13063665	    330.71725717	      0.00000000	      0.00000000	      0.00000000	      0.00000000	      0.00000000	      0.00000000	      0.00000000	      0.00000000	      0.00000001	      0.00000000
      0.15671200	     11.81856100	      8.63744897	      9.29379429	      3.98244360	      4.62032975	      5.02811981	      4.92784800	    162.17315652	    134.18327420	    289.81366586	    128.84983095	      8.59983669	      6.17917738	      0.00000000	      3.76877617	      6.36898560	      5.01589555	      3.36230145	     98.98480786	      5.57787834	      8.48602252	      6.38049215	     28.08537531	     19.14303367	      5.48020552	      3.74481049	      6.31098331	     48.13025402	     31.22764059	     33.45623422	     45.35507141	      0.00000000	      0.00000000	      0.00000000	      0.00000000	      0.00000000	      0.00000000	     35.80120860	      0.67950002	      0.45802226	     21.46161856	     34.56536914	      9.43908123	     11.81856100	      8.63744897	      9.29379429	      3.98244360	      4.62032975	      5.02811981	      0.00000000	      6.41449025	     12.64307480	     10.90807437	      2.27194052	      8.59983669	      6.17917738	      0.00000000	      3.76877617	      6.36898560	      5.56946303	      3.36230145	      2.34672123	      5.57787834	      8.48602252	      6.38049215	     28.08537531	     19.14303367	      5.48020552	      3.74481049	      6.31098331	     17.68389357	      0.00000000	      0.00000000	      0.00000000	     21.31799042	     10.10044037	     52.32494983	     51.81763581	      5.61769304	      5.02396339	     13.72636659	      7.35906564	     18.69379277	      2.95942607	      9.22790344	      2.89712110	     37.48826890	     37.48826890	     13.96602258	     13.96602258	     31.28440381	     31.28440381	     21.78693209	     63.13834801	     15.33086769	     -7.77706126	      0.58091826	      8.35516188	    -21.78693209	    -63.13834801	    -15.33086769	      1.98615484	     -0.91334324	      1.24343697	      1.29452140	      2.60178105	      1.50070525	     -0.55187565	     -0.03229269	      0.53008850	     -1.29452140	     -2.60178105	     -1.50070525	     -0.02134404	      0.00124199	      0.01820854	   -600.69290747	   -671.66920183	    242.77378928	    -15.78794610	     13.71440889	     -1.09314973	    600.69290747	    671.66920183	   -242.77378928	    110.46132877	    -10.13106577	    245.25645451	   -106.69240326	   -161.69899722	    -57.43120282	      5.57701437	     -4.02515109	      0.97979957	    106.69240326	    161.69899722	     57.43120282	    -27.40340620	      2.73528063	     43.19968534	    -12.30048237	      0.00000000	    458.19165349	    332.01925090	      0.00000000	      0.00000000	      0.00000000	      0.00000000	      0.00000000	      0.00000000	      0.00000000	      0.00000000	      0.00000001	      0.00000000
